<?xml version="1.0" encoding="utf-8"?>
<!-- Generator: Adobe Illustrator 17.1.0, SVG Export Plug-In . SVG Version: 6.00 Build 0)  -->
<!DOCTYPE svg PUBLIC "-//W3C//DTD SVG 1.1//EN" "http://www.w3.org/Graphics/SVG/1.1/DTD/svg11.dtd">
<svg version="1.1" id="Layer_1" xmlns="http://www.w3.org/2000/svg" xmlns:xlink="http://www.w3.org/1999/xlink" x="0px" y="0px"
	 viewBox="0 0 2418.9 465.3" enable-background="new 0 0 2418.9 465.3" xml:space="preserve">
<g>
	<path fill-rule="evenodd" clip-rule="evenodd" fill="#FFFFFF" d="M219.1,44.9c18.5,0,36.9,0,55.4,0c0,18.5,0,36.9,0,55.4
		c-18.5,0-36.9,0-55.4,0C219.1,81.9,219.1,63.4,219.1,44.9z"/>
	<path fill-rule="evenodd" clip-rule="evenodd" fill="#FFFFFF" d="M447.2,44.9c18.5,0,36.9,0,55.4,0c0,18.5,0,36.9,0,55.4
		c-18.5,0-36.9,0-55.4,0C447.2,81.9,447.2,63.4,447.2,44.9z"/>
	<path fill-rule="evenodd" clip-rule="evenodd" fill="#FFFFFF" d="M163.6,103.6c17.4,0,34.8,0,52.2,0c0,17.4,0,34.8,0,52.2
		c-17.4,0-34.8,0-52.2,0C163.6,138.4,163.6,121,163.6,103.6z"/>
	<path fill-rule="evenodd" clip-rule="evenodd" fill="#FFFFFF" d="M219.1,103.6c18.5,0,36.9,0,55.4,0c0,17.4,0,34.8,0,52.2
		c-18.5,0-36.9,0-55.4,0C219.1,138.4,219.1,121,219.1,103.6z"/>
	<path fill-rule="evenodd" clip-rule="evenodd" fill="#FFFFFF" d="M277.7,103.6c17.4,0,34.8,0,52.2,0c0,17.4,0,34.8,0,52.2
		c-17.4,0-34.8,0-52.2,0C277.7,138.4,277.7,121,277.7,103.6z"/>
	<path fill-rule="evenodd" clip-rule="evenodd" fill="#FFFFFF" d="M333.1,103.6c17.4,0,34.8,0,52.2,0c0,17.4,0,34.8,0,52.2
		c-17.4,0-34.8,0-52.2,0C333.1,138.4,333.1,121,333.1,103.6z"/>
	<path fill-rule="evenodd" clip-rule="evenodd" fill="#FFFFFF" d="M388.6,103.6c18.5,0,36.9,0,55.4,0c0,17.4,0,34.8,0,52.2
		c-18.5,0-36.9,0-55.4,0C388.6,138.4,388.6,121,388.6,103.6z"/>
	<path fill-rule="evenodd" clip-rule="evenodd" fill="#FFFFFF" d="M447.2,103.6c18.5,0,36.9,0,55.4,0c0,17.4,0,34.8,0,52.2
		c-18.5,0-36.9,0-55.4,0C447.2,138.4,447.2,121,447.2,103.6z"/>
	<path fill-rule="evenodd" clip-rule="evenodd" fill="#FFFFFF" d="M505.9,103.6c17.4,0,34.8,0,52.2,0c0,17.4,0,34.8,0,52.2
		c-17.4,0-34.8,0-52.2,0C505.9,138.4,505.9,121,505.9,103.6z"/>
	<path fill-rule="evenodd" clip-rule="evenodd" fill="#FFFFFF" d="M108.2,159c17.4,0,34.8,0,52.2,0c0,17.4,0,34.8,0,52.1
		c-17.4,0-34.8,0-52.2,0C108.2,193.8,108.2,176.4,108.2,159z"/>
	<path fill-rule="evenodd" clip-rule="evenodd" fill="#FFFFFF" d="M163.6,159c17.4,0,34.8,0,52.2,0c0,17.4,0,34.8,0,52.1
		c-17.4,0-34.8,0-52.2,0C163.6,193.8,163.6,176.4,163.6,159z"/>
	<path fill-rule="evenodd" clip-rule="evenodd" fill="#FFFFFF" d="M277.7,159c17.4,0,34.8,0,52.2,0c0,17.4,0,34.8,0,52.1
		c-17.4,0-34.8,0-52.2,0C277.7,193.8,277.7,176.4,277.7,159z"/>
	<path fill-rule="evenodd" clip-rule="evenodd" fill="#FFFFFF" d="M333.1,159c17.4,0,34.8,0,52.2,0c0,17.4,0,34.8,0,52.1
		c-17.4,0-34.8,0-52.2,0C333.1,193.8,333.1,176.4,333.1,159z"/>
	<path fill-rule="evenodd" clip-rule="evenodd" fill="#FFFFFF" d="M388.6,159c18.5,0,36.9,0,55.4,0c0,17.4,0,34.8,0,52.1
		c-18.5,0-36.9,0-55.4,0C388.6,193.8,388.6,176.4,388.6,159z"/>
	<path fill-rule="evenodd" clip-rule="evenodd" fill="#FFFFFF" d="M505.9,159c17.4,0,34.8,0,52.2,0c0,17.4,0,34.8,0,52.1
		c-17.4,0-34.8,0-52.2,0C505.9,193.8,505.9,176.4,505.9,159z"/>
	<path fill-rule="evenodd" clip-rule="evenodd" fill="#FFFFFF" d="M561.3,159c17.4,0,34.8,0,52.2,0c0,17.4,0,34.8,0,52.1
		c-17.4,0-34.8,0-52.2,0C561.3,193.8,561.3,176.4,561.3,159z"/>
	<path fill-rule="evenodd" clip-rule="evenodd" fill="#FFFFFF" d="M49.6,214.4c18.5,0,36.9,0,55.4,0c0,18.5,0,36.9,0,55.4
		c-18.5,0-37,0-55.4,0C49.6,251.4,49.6,232.9,49.6,214.4z"/>
	<path fill-rule="evenodd" clip-rule="evenodd" fill="#FFFFFF" d="M108.2,214.4c17.4,0,34.8,0,52.2,0c0,18.5,0,36.9,0,55.4
		c-17.4,0-34.8,0-52.2,0C108.2,251.4,108.2,232.9,108.2,214.4z"/>
	<path fill-rule="evenodd" clip-rule="evenodd" fill="#FFFFFF" d="M163.6,214.4c17.4,0,34.8,0,52.2,0c0,18.5,0,36.9,0,55.4
		c-17.4,0-34.8,0-52.2,0C163.6,251.4,163.6,232.9,163.6,214.4z"/>
	<path fill-rule="evenodd" clip-rule="evenodd" fill="#FFFFFF" d="M219.1,214.4c18.5,0,36.9,0,55.4,0c0,18.5,0,36.9,0,55.4
		c-18.5,0-36.9,0-55.4,0C219.1,251.4,219.1,232.9,219.1,214.4z"/>
	<path fill-rule="evenodd" clip-rule="evenodd" fill="#FFFFFF" d="M277.7,214.4c17.4,0,34.8,0,52.2,0c0,18.5,0,36.9,0,55.4
		c-17.4,0-34.8,0-52.2,0C277.7,251.4,277.7,232.9,277.7,214.4z"/>
	<path fill-rule="evenodd" clip-rule="evenodd" fill="#FFFFFF" d="M333.1,214.4c17.4,0,34.8,0,52.2,0c0,18.5,0,36.9,0,55.4
		c-17.4,0-34.8,0-52.2,0C333.1,251.4,333.1,232.9,333.1,214.4z"/>
	<path fill-rule="evenodd" clip-rule="evenodd" fill="#FFFFFF" d="M388.6,214.4c18.5,0,36.9,0,55.4,0c0,18.5,0,36.9,0,55.4
		c-18.5,0-36.9,0-55.4,0C388.6,251.4,388.6,232.9,388.6,214.4z"/>
	<path fill-rule="evenodd" clip-rule="evenodd" fill="#FFFFFF" d="M447.2,214.4c18.5,0,36.9,0,55.4,0c0,18.5,0,36.9,0,55.4
		c-18.5,0-36.9,0-55.4,0C447.2,251.4,447.2,232.9,447.2,214.4z"/>
	<path fill-rule="evenodd" clip-rule="evenodd" fill="#FFFFFF" d="M505.9,214.4c17.4,0,34.8,0,52.2,0c0,18.5,0,36.9,0,55.4
		c-17.4,0-34.8,0-52.2,0C505.9,251.4,505.9,232.9,505.9,214.4z"/>
	<path fill-rule="evenodd" clip-rule="evenodd" fill="#FFFFFF" d="M561.3,214.4c17.4,0,34.8,0,52.2,0c0,18.5,0,36.9,0,55.4
		c-17.4,0-34.8,0-52.2,0C561.3,251.4,561.3,232.9,561.3,214.4z"/>
	<path fill-rule="evenodd" clip-rule="evenodd" fill="#FFFFFF" d="M616.7,214.4c18.5,0,36.9,0,55.4,0c0,18.5,0,36.9,0,55.4
		c-18.5,0-37,0-55.4,0C616.7,251.4,616.7,232.9,616.7,214.4z"/>
	<path fill-rule="evenodd" clip-rule="evenodd" fill="#FFFFFF" d="M49.6,273.1c18.5,0,36.9,0,55.4,0c0,17.4,0,34.8,0,52.1
		c-18.5,0-37,0-55.4,0C49.6,307.9,49.6,290.5,49.6,273.1z"/>
	<path fill-rule="evenodd" clip-rule="evenodd" fill="#FFFFFF" d="M163.6,273.1c17.4,0,34.8,0,52.2,0c0,17.4,0,34.8,0,52.1
		c-17.4,0-34.8,0-52.2,0C163.6,307.9,163.6,290.5,163.6,273.1z"/>
	<path fill-rule="evenodd" clip-rule="evenodd" fill="#FFFFFF" d="M219.1,273.1c18.5,0,36.9,0,55.4,0c0,17.4,0,34.8,0,52.1
		c-18.5,0-36.9,0-55.4,0C219.1,307.9,219.1,290.5,219.1,273.1z"/>
	<path fill-rule="evenodd" clip-rule="evenodd" fill="#FFFFFF" d="M277.7,273.1c17.4,0,34.8,0,52.2,0c0,17.4,0,34.8,0,52.1
		c-17.4,0-34.8,0-52.2,0C277.7,307.9,277.7,290.5,277.7,273.1z"/>
	<path fill-rule="evenodd" clip-rule="evenodd" fill="#FFFFFF" d="M333.1,273.1c17.4,0,34.8,0,52.2,0c0,17.4,0,34.8,0,52.1
		c-17.4,0-34.8,0-52.2,0C333.1,307.9,333.1,290.5,333.1,273.1z"/>
	<path fill-rule="evenodd" clip-rule="evenodd" fill="#FFFFFF" d="M388.6,273.1c18.5,0,36.9,0,55.4,0c0,17.4,0,34.8,0,52.1
		c-18.5,0-36.9,0-55.4,0C388.6,307.9,388.6,290.5,388.6,273.1z"/>
	<path fill-rule="evenodd" clip-rule="evenodd" fill="#FFFFFF" d="M447.2,273.1c18.5,0,36.9,0,55.4,0c0,17.4,0,34.8,0,52.1
		c-18.5,0-36.9,0-55.4,0C447.2,307.9,447.2,290.5,447.2,273.1z"/>
	<path fill-rule="evenodd" clip-rule="evenodd" fill="#FFFFFF" d="M505.9,273.1c17.4,0,34.8,0,52.2,0c0,17.4,0,34.8,0,52.1
		c-17.4,0-34.8,0-52.2,0C505.9,307.9,505.9,290.5,505.9,273.1z"/>
	<path fill-rule="evenodd" clip-rule="evenodd" fill="#FFFFFF" d="M616.7,273.1c18.5,0,36.9,0,55.4,0c0,17.4,0,34.8,0,52.1
		c-18.5,0-37,0-55.4,0C616.7,307.9,616.7,290.5,616.7,273.1z"/>
	<path fill-rule="evenodd" clip-rule="evenodd" fill="#FFFFFF" d="M49.6,328.5c18.5,0,36.9,0,55.4,0c0,18.5,0,37,0,55.4
		c-18.5,0-37,0-55.4,0C49.6,365.4,49.6,347,49.6,328.5z"/>
	<path fill-rule="evenodd" clip-rule="evenodd" fill="#FFFFFF" d="M163.6,328.5c17.4,0,34.8,0,52.2,0c0,18.5,0,37,0,55.4
		c-17.4,0-34.8,0-52.2,0C163.6,365.4,163.6,347,163.6,328.5z"/>
	<path fill-rule="evenodd" clip-rule="evenodd" fill="#FFFFFF" d="M505.9,328.5c17.4,0,34.8,0,52.2,0c0,18.5,0,37,0,55.4
		c-17.4,0-34.8,0-52.2,0C505.9,365.4,505.9,347,505.9,328.5z"/>
	<path fill-rule="evenodd" clip-rule="evenodd" fill="#FFFFFF" d="M616.7,328.5c18.5,0,36.9,0,55.4,0c0,18.5,0,37,0,55.4
		c-18.5,0-37,0-55.4,0C616.7,365.4,616.7,347,616.7,328.5z"/>
	<path fill-rule="evenodd" clip-rule="evenodd" fill="#FFFFFF" d="M219.1,383.9c18.5,0,36.9,0,55.4,0c0,18.5,0,36.9,0,55.4
		c-18.5,0-36.9,0-55.4,0C219.1,420.9,219.1,402.4,219.1,383.9z"/>
	<path fill-rule="evenodd" clip-rule="evenodd" fill="#FFFFFF" d="M447.2,383.9c18.5,0,36.9,0,55.4,0c0,18.5,0,36.9,0,55.4
		c-18.5,0-36.9,0-55.4,0C447.2,420.9,447.2,402.4,447.2,383.9z"/>
</g>
<g>
	<g>
		<path fill="#FFFFFF" d="M1385.3,375.1V273.4h-23v-9.8h23v-10c0-22.3,8.9-38.5,33.7-38.5c8.4,0,15.9,3,22.3,7.7l-5.5,8.2
			c-6.1-3.6-10.5-5.7-17.3-5.7c-14.1,0-22.3,8.6-22.3,28.2v10h37.1v9.8h-37.1v101.7H1385.3z"/>
		<path fill="#FFFFFF" d="M1439.9,318.9c0-33.7,25.5-58,57.1-58c31.6,0,59.9,19.3,55.5,63.3h-101.3c2.3,26.4,22.5,41.7,45.8,41.7
			c14.8,0,32.1-5.9,40.5-17.1l8,6.4c-10.9,14.3-30.5,21.6-48.5,21.6C1465.4,376.7,1439.9,354.7,1439.9,318.9z M1542.6,314.4
			c-0.2-27.8-18.4-43.2-45.5-43.2c-23.2,0-43.3,15.7-45.8,43.2H1542.6z"/>
		<path fill="#FFFFFF" d="M1654.3,283.2c-11.4-10-22.5-11.8-35.1-11.8c-17.5-0.2-34.4,6.4-33.9,20.7c0.4,15,20,18,34.1,20.5
			c20,3.4,47.6,6.8,46.4,33c-0.7,24.8-26.4,31.4-46.2,31.4c-19.8,0-39.4-7.5-49.2-22.5l8.2-7.3c9.3,13.4,26.2,19.1,41.2,19.1
			c13.7,0,34.4-3.6,35-21.4c0.5-16.2-18.2-19.4-36.7-22.3c-21.9-3.6-43.5-7.7-43.7-30.3c-0.2-22.1,21.8-31.6,44.6-31.4
			c16.4,0,30.7,4.6,41.9,15L1654.3,283.2z"/>
		<path fill="#FFFFFF" d="M1714.2,228.8v33.9h38.2v9.3h-38.2v68.5c0,15.3,3.2,25.9,20.7,25.9c5.5,0,11.6-1.8,17.3-4.5l3.9,9.1
			c-7,3.4-14.1,5.7-21.2,5.7c-23.9,0-31.6-14.1-31.6-36.2V272h-23.9v-9.3h23.9v-32.8L1714.2,228.8z"/>
	</g>
	<g>
		<g>
			<path fill="#FFFFFF" d="M890.7,350.8c-3.1,3-6,6.3-9.3,9.2c-11.5,10.2-25,16.3-40.3,18.5c-6,0.9-12.1,1.1-18.2,0.9
				c-0.2,0-0.3,0-0.7-0.1c0.4-0.4,0.7-0.7,1-1.1c9.5-9.6,19.1-19.2,28.6-28.8c2.9-2.9,5.8-5.9,8.6-8.8c0.1-0.1,0.3-0.3,0.4-0.4
				c1.9-0.9,2.2-2.5,2.2-4.5c-0.1-7.9,0-15.8,0-23.7v-1.6h-40.7v-27h1.3c21.9,0,43.8,0,65.7,0c0.4,0,0.9,0.1,1.3,0.1V350.8z"/>
			<path fill="#FFFFFF" d="M886.5,235.8c-6.4,6.6-12.7,13-18.9,19.4c-7.3-6.8-15.7-11.3-25.2-13.8c-15.8-4.2-31-2.7-45,6
				c-10.9,6.7-17.9,16.6-21.8,28.7c-4.6,14.4-4.9,28.8,0.3,43.1c4.5,12.3,12.7,21.4,24.8,26.9c0.2,0.1,0.5,0.3,0.9,0.5
				c-1.2,1.2-2.3,2.4-3.4,3.5c-5.8,5.8-11.6,11.7-17.4,17.5c-0.6,0.6-1.1,0.7-1.8,0.2c-15.7-9.3-26-22.9-31.7-40.1
				c-2.9-8.7-4.2-17.6-4.5-26.7c-0.4-12.9,1.4-25.5,6-37.6c6.9-18.3,18.5-32.6,35.9-42c9.2-5,19.2-7.8,29.6-9.1
				c7.3-0.9,14.7-1.1,22.1-0.3c14.8,1.6,28.2,6.8,40.3,15.6C879.9,230.2,883.1,233.1,886.5,235.8"/>
		</g>
		<path fill="#FFFFFF" d="M998.6,261h26.6v112.2h-26.2l-1.4-16.4c-6.4,13.2-23.9,19.6-36.4,19.8c-33.2,0.2-57.8-20.3-57.8-59.6
			c0-38.7,25.7-59,58.5-58.7c15,0,29.4,7,35.7,18.2L998.6,261z M931.2,317c0,21.4,14.8,34.1,33.2,34.1c43.7,0,43.7-68.1,0-68.1
			C946,283.1,931.2,295.6,931.2,317z"/>
		<path fill="#FFFFFF" d="M1118.9,373.2v-60.1c0-14.8-7.7-28.2-23-28.2c-15,0-23.9,13.4-23.9,28.2v60.1h-27.8V260.8h25.7l2,13.7
			c5.9-11.4,18.9-15.5,29.6-15.5c13.4,0,26.8,5.5,33.2,20.9c10-15.9,23-20.5,37.6-20.5c31.9,0,47.6,19.6,47.6,53.3v60.5h-27.8v-60.5
			c0-14.8-6.1-27.3-21.2-27.3c-15,0-24.3,13-24.3,27.8v60.1H1118.9z"/>
		<path fill="#FFFFFF" d="M1263.1,327c1.8,13.9,13.9,23.9,33.5,23.9c10.2,0,23.7-3.9,30-10.5l17.8,17.5
			c-11.8,12.3-31.2,18.2-48.3,18.2c-38.7,0-61.7-23.9-61.7-59.9c0-34.1,23.2-58.7,59.6-58.7c37.6,0,61,23.2,56.7,69.4H1263.1z
			 M1324.1,304c-1.8-14.6-13.2-21.9-29.1-21.9c-15,0-27.3,7.3-31.4,21.9H1324.1z"/>
	</g>
</g>
<g>
	<linearGradient id="SVGID_1_" gradientUnits="userSpaceOnUse" x1="1840.1602" y1="234.3529" x2="1840.1602" y2="379.9593">
		<stop  offset="0" style="stop-color:#FFFFFF"/>
		<stop  offset="1" style="stop-color:#7D7E81"/>
	</linearGradient>
	<path fill="url(#SVGID_1_)" d="M1825.4,338.5l-19.9,41.5h-26.8l73-145.6h31.5l18.4,145.6h-26.4l-4.1-41.5H1825.4z M1869.6,319
		l-4.1-36.3c-0.6-7.8-1.5-19-2.2-27.7h-0.4c-3.9,8.6-7.8,19-11.9,27.7l-17.7,36.3H1869.6z"/>
	<linearGradient id="SVGID_2_" gradientUnits="userSpaceOnUse" x1="1962.0059" y1="234.3529" x2="1962.0059" y2="379.9593">
		<stop  offset="0" style="stop-color:#FFFFFF"/>
		<stop  offset="1" style="stop-color:#7D7E81"/>
	</linearGradient>
	<path fill="url(#SVGID_2_)" d="M1946.3,234.4h25.3l-23.5,123.6h57.2l-4.1,22h-82.5L1946.3,234.4z"/>
	<linearGradient id="SVGID_3_" gradientUnits="userSpaceOnUse" x1="2076.0737" y1="233.2728" x2="2076.0737" y2="379.9593">
		<stop  offset="0" style="stop-color:#FFFFFF"/>
		<stop  offset="1" style="stop-color:#7D7E81"/>
	</linearGradient>
	<path fill="url(#SVGID_3_)" d="M2046.8,236.7c8.9-2.2,22-3.5,35.2-3.5c13.4,0,27.9,2.8,37.2,10.4c8.6,6.5,13.4,16,13.4,28.9
		c0,17.3-8,31.1-18.6,39.5c-11.7,9.3-28.3,13.8-45.6,13.8c-5.2,0-9.7-0.6-13.6-1.1l-10.4,55.1h-24.8L2046.8,236.7z M2058.7,304.1
		c4.1,0.9,7.8,1.3,13.2,1.3c21.4,0,35.4-13.6,35.4-30.9c0-15.3-11-21-25.3-21c-6.3,0-11,0.4-13.8,1.3L2058.7,304.1z"/>
	<linearGradient id="SVGID_4_" gradientUnits="userSpaceOnUse" x1="2204.6128" y1="234.3529" x2="2204.6128" y2="379.9593">
		<stop  offset="0" style="stop-color:#FFFFFF"/>
		<stop  offset="1" style="stop-color:#7D7E81"/>
	</linearGradient>
	<path fill="url(#SVGID_4_)" d="M2188.7,234.4l-11.2,58.8h59.2l11.2-58.8h25.3L2245.6,380h-25.3l12.3-64.4h-59.4l-12.1,64.4H2136
		l27.7-145.6H2188.7z"/>
	<linearGradient id="SVGID_5_" gradientUnits="userSpaceOnUse" x1="2326.0273" y1="234.3529" x2="2326.0273" y2="379.9593">
		<stop  offset="0" style="stop-color:#FFFFFF"/>
		<stop  offset="1" style="stop-color:#7D7E81"/>
	</linearGradient>
	<path fill="url(#SVGID_5_)" d="M2311.2,338.5l-19.9,41.5h-26.8l73-145.6h31.5l18.4,145.6h-26.4l-4.1-41.5H2311.2z M2355.5,319
		l-4.1-36.3c-0.6-7.8-1.5-19-2.2-27.7h-0.4c-3.9,8.6-7.8,19-11.9,27.7l-17.7,36.3H2355.5z"/>
</g>
</svg>
