<?xml version="1.0" encoding="utf-8"?>
<!-- Generator: Adobe Illustrator 17.1.0, SVG Export Plug-In . SVG Version: 6.00 Build 0)  -->
<!DOCTYPE svg PUBLIC "-//W3C//DTD SVG 1.1//EN" "http://www.w3.org/Graphics/SVG/1.1/DTD/svg11.dtd">
<svg version="1.1" id="Layer_1" xmlns="http://www.w3.org/2000/svg" xmlns:xlink="http://www.w3.org/1999/xlink" x="0px" y="0px"
	 viewBox="0 193 488 118" enable-background="new 0 193 488 118" xml:space="preserve">
<g>
	<path fill="#349FD9" d="M52.3,194c5.3,0,10.6,0,15.8,0c0,5.3,0,10.6,0,15.8c-5.3,0-10.6,0-15.8,0C52.3,204.6,52.3,199.3,52.3,194z"
		/>
	<path fill="#349FD9" d="M117.5,194c5.3,0,10.6,0,15.8,0c0,5.3,0,10.6,0,15.8c-5.3,0-10.6,0-15.8,0
		C117.5,204.6,117.5,199.3,117.5,194z"/>
	<path fill="#349FD9" d="M36.4,210.8c5,0,10,0,14.9,0c0,5,0,10,0,14.9c-5,0-10,0-14.9,0C36.4,220.7,36.4,215.8,36.4,210.8z"/>
	<path fill="#349FD9" d="M52.3,210.8c5.3,0,10.6,0,15.8,0c0,5,0,10,0,14.9c-5.3,0-10.6,0-15.8,0C52.3,220.7,52.3,215.8,52.3,210.8z"
		/>
	<path fill="#349FD9" d="M69.1,210.8c5,0,10,0,14.9,0c0,5,0,10,0,14.9c-5,0-10,0-14.9,0C69.1,220.7,69.1,215.8,69.1,210.8z"/>
	<path fill="#349FD9" d="M84.9,210.8c5,0,10,0,14.9,0c0,5,0,10,0,14.9c-5,0-10,0-14.9,0C84.9,220.7,84.9,215.8,84.9,210.8z"/>
	<path fill="#349FD9" d="M100.7,210.8c5.3,0,10.6,0,15.8,0c0,5,0,10,0,14.9c-5.3,0-10.6,0-15.8,0
		C100.7,220.7,100.7,215.8,100.7,210.8z"/>
	<path fill="#349FD9" d="M117.5,210.8c5.3,0,10.6,0,15.8,0c0,5,0,10,0,14.9c-5.3,0-10.6,0-15.8,0
		C117.5,220.7,117.5,215.8,117.5,210.8z"/>
	<path fill="#349FD9" d="M134.3,210.8c5,0,10,0,14.9,0c0,5,0,10,0,14.9c-5,0-10,0-14.9,0C134.3,220.7,134.3,215.8,134.3,210.8z"/>
	<path fill="#349FD9" d="M20.6,226.7c5,0,10,0,14.9,0c0,5,0,10,0,14.9c-5,0-10,0-14.9,0C20.6,236.6,20.6,231.6,20.6,226.7z"/>
	<path fill="#349FD9" d="M36.4,226.7c5,0,10,0,14.9,0c0,5,0,10,0,14.9c-5,0-10,0-14.9,0C36.4,236.6,36.4,231.6,36.4,226.7z"/>
	<path fill="#349FD9" d="M69.1,226.7c5,0,10,0,14.9,0c0,5,0,10,0,14.9c-5,0-10,0-14.9,0C69.1,236.6,69.1,231.6,69.1,226.7z"/>
	<path fill="#349FD9" d="M84.9,226.7c5,0,10,0,14.9,0c0,5,0,10,0,14.9c-5,0-10,0-14.9,0C84.9,236.6,84.9,231.6,84.9,226.7z"/>
	<path fill="#349FD9" d="M100.7,226.7c5.3,0,10.6,0,15.8,0c0,5,0,10,0,14.9c-5.3,0-10.6,0-15.8,0
		C100.7,236.6,100.7,231.6,100.7,226.7z"/>
	<path fill="#349FD9" d="M134.3,226.7c5,0,10,0,14.9,0c0,5,0,10,0,14.9c-5,0-10,0-14.9,0C134.3,236.6,134.3,231.6,134.3,226.7z"/>
	<path fill="#349FD9" d="M150.2,226.7c5,0,10,0,14.9,0c0,5,0,10,0,14.9c-5,0-10,0-14.9,0C150.2,236.6,150.2,231.6,150.2,226.7z"/>
	<path fill="#349FD9" d="M3.8,242.5c5.3,0,10.6,0,15.8,0c0,5.3,0,10.6,0,15.8c-5.3,0-10.6,0-15.8,0C3.8,253.1,3.8,247.8,3.8,242.5z"
		/>
	<path fill="#349FD9" d="M20.6,242.5c5,0,10,0,14.9,0c0,5.3,0,10.6,0,15.8c-5,0-10,0-14.9,0C20.6,253.1,20.6,247.8,20.6,242.5z"/>
	<path fill="#349FD9" d="M36.4,242.5c5,0,10,0,14.9,0c0,5.3,0,10.6,0,15.8c-5,0-10,0-14.9,0C36.4,253.1,36.4,247.8,36.4,242.5z"/>
	<path fill="#349FD9" d="M52.3,242.5c5.3,0,10.6,0,15.8,0c0,5.3,0,10.6,0,15.8c-5.3,0-10.6,0-15.8,0
		C52.3,253.1,52.3,247.8,52.3,242.5z"/>
	<path fill="#349FD9" d="M69.1,242.5c5,0,10,0,14.9,0c0,5.3,0,10.6,0,15.8c-5,0-10,0-14.9,0C69.1,253.1,69.1,247.8,69.1,242.5z"/>
	<path fill="#349FD9" d="M84.9,242.5c5,0,10,0,14.9,0c0,5.3,0,10.6,0,15.8c-5,0-10,0-14.9,0C84.9,253.1,84.9,247.8,84.9,242.5z"/>
	<path fill="#349FD9" d="M100.7,242.5c5.3,0,10.6,0,15.8,0c0,5.3,0,10.6,0,15.8c-5.3,0-10.6,0-15.8,0
		C100.7,253.1,100.7,247.8,100.7,242.5z"/>
	<path fill="#349FD9" d="M117.5,242.5c5.3,0,10.6,0,15.8,0c0,5.3,0,10.6,0,15.8c-5.3,0-10.6,0-15.8,0
		C117.5,253.1,117.5,247.8,117.5,242.5z"/>
	<path fill="#349FD9" d="M134.3,242.5c5,0,10,0,14.9,0c0,5.3,0,10.6,0,15.8c-5,0-10,0-14.9,0C134.3,253.1,134.3,247.8,134.3,242.5z"
		/>
	<path fill="#349FD9" d="M150.2,242.5c5,0,10,0,14.9,0c0,5.3,0,10.6,0,15.8c-5,0-10,0-14.9,0C150.2,253.1,150.2,247.8,150.2,242.5z"
		/>
	<path fill="#349FD9" d="M166,242.5c5.3,0,10.6,0,15.8,0c0,5.3,0,10.6,0,15.8c-5.3,0-10.6,0-15.8,0C166,253.1,166,247.8,166,242.5z"
		/>
	<path fill="#349FD9" d="M3.8,259.3c5.3,0,10.6,0,15.8,0c0,5,0,10,0,14.9c-5.3,0-10.6,0-15.8,0C3.8,269.2,3.8,264.2,3.8,259.3z"/>
	<path fill="#349FD9" d="M36.4,259.3c5,0,10,0,14.9,0c0,5,0,10,0,14.9c-5,0-10,0-14.9,0C36.4,269.2,36.4,264.2,36.4,259.3z"/>
	<path fill="#349FD9" d="M52.3,259.3c5.3,0,10.6,0,15.8,0c0,5,0,10,0,14.9c-5.3,0-10.6,0-15.8,0C52.3,269.2,52.3,264.2,52.3,259.3z"
		/>
	<path fill="#349FD9" d="M69.1,259.3c5,0,10,0,14.9,0c0,5,0,10,0,14.9c-5,0-10,0-14.9,0C69.1,269.2,69.1,264.2,69.1,259.3z"/>
	<path fill="#349FD9" d="M84.9,259.3c5,0,10,0,14.9,0c0,5,0,10,0,14.9c-5,0-10,0-14.9,0C84.9,269.2,84.9,264.2,84.9,259.3z"/>
	<path fill="#349FD9" d="M100.7,259.3c5.3,0,10.6,0,15.8,0c0,5,0,10,0,14.9c-5.3,0-10.6,0-15.8,0
		C100.7,269.2,100.7,264.2,100.7,259.3z"/>
	<path fill="#349FD9" d="M117.5,259.3c5.3,0,10.6,0,15.8,0c0,5,0,10,0,14.9c-5.3,0-10.6,0-15.8,0
		C117.5,269.2,117.5,264.2,117.5,259.3z"/>
	<path fill="#349FD9" d="M134.3,259.3c5,0,10,0,14.9,0c0,5,0,10,0,14.9c-5,0-10,0-14.9,0C134.3,269.2,134.3,264.2,134.3,259.3z"/>
	<path fill="#349FD9" d="M166,259.3c5.3,0,10.6,0,15.8,0c0,5,0,10,0,14.9c-5.3,0-10.6,0-15.8,0C166,269.2,166,264.2,166,259.3z"/>
	<path fill="#349FD9" d="M3.8,275.1c5.3,0,10.6,0,15.8,0c0,5.3,0,10.6,0,15.8c-5.3,0-10.6,0-15.8,0C3.8,285.7,3.8,280.4,3.8,275.1z"
		/>
	<path fill="#349FD9" d="M36.4,275.1c5,0,10,0,14.9,0c0,5.3,0,10.6,0,15.8c-5,0-10,0-14.9,0C36.4,285.7,36.4,280.4,36.4,275.1z"/>
	<path fill="#349FD9" d="M134.3,275.1c5,0,10,0,14.9,0c0,5.3,0,10.6,0,15.8c-5,0-10,0-14.9,0C134.3,285.7,134.3,280.4,134.3,275.1z"
		/>
	<path fill="#349FD9" d="M166,275.1c5.3,0,10.6,0,15.8,0c0,5.3,0,10.6,0,15.8c-5.3,0-10.6,0-15.8,0C166,285.7,166,280.4,166,275.1z"
		/>
	<path fill="#349FD9" d="M52.3,291c5.3,0,10.6,0,15.8,0c0,5.3,0,10.6,0,15.8c-5.3,0-10.6,0-15.8,0C52.3,301.5,52.3,296.3,52.3,291z"
		/>
	<path fill="#349FD9" d="M117.5,291c5.3,0,10.6,0,15.8,0c0,5.3,0,10.6,0,15.8c-5.3,0-10.6,0-15.8,0
		C117.5,301.5,117.5,296.3,117.5,291z"/>
</g>
<g>
	<g>
		<path fill="#FFFFFF" d="M378.4,251v-29.1h-6.6v-2.8h6.6v-2.9c0-6.4,2.5-11,9.6-11c2.4,0,4.5,0.9,6.4,2.2l-1.6,2.3
			c-1.7-1-3-1.6-4.9-1.6c-4,0-6.4,2.5-6.4,8.1v2.9h10.6v2.8h-10.6V251H378.4L378.4,251z"/>
		<path fill="#FFFFFF" d="M394.1,235c0-9.6,7.3-16.6,16.3-16.6s17.1,5.5,15.9,18.1h-29c0.7,7.6,6.4,11.9,13.1,11.9
			c4.2,0,9.2-1.7,11.6-4.9l2.3,1.8c-3.1,4.1-8.7,6.2-13.9,6.2C401.4,251.5,394.1,245.2,394.1,235z M423.4,233.6
			c-0.1-8-5.3-12.4-13-12.4c-6.6,0-12.4,4.5-13.1,12.4H423.4z"/>
		<path fill="#FFFFFF" d="M455.4,224.7c-3.3-2.9-6.4-3.4-10-3.4c-5-0.1-9.8,1.8-9.7,5.9c0.1,4.3,5.7,5.1,9.8,5.9
			c5.7,1,13.6,1.9,13.3,9.4c-0.2,7.1-7.6,9-13.2,9c-5.7,0-11.3-2.1-14.1-6.4l2.3-2.1c2.7,3.8,7.5,5.5,11.8,5.5c3.9,0,9.8-1,10-6.1
			c0.1-4.6-5.2-5.5-10.5-6.4c-6.3-1-12.4-2.2-12.5-8.7c-0.1-6.3,6.2-9,12.8-9c4.7,0,8.8,1.3,12,4.3L455.4,224.7z"/>
		<path fill="#FFFFFF" d="M472.5,209.2v9.7h10.9v2.7h-10.9v19.6c0,4.4,0.9,7.4,5.9,7.4c1.6,0,3.3-0.5,4.9-1.3l1.1,2.6
			c-2,1-4,1.6-6.1,1.6c-6.8,0-9-4-9-10.4v-19.6h-6.8v-2.7h6.8v-9.4L472.5,209.2z"/>
	</g>
	<g>
		<g>
			<path fill="#FFFFFF" d="M236.9,244.1c-0.9,0.9-1.7,1.8-2.7,2.6c-3.3,2.9-7.2,4.7-11.5,5.3c-1.7,0.3-3.5,0.3-5.2,0.3
				c-0.1,0-0.1,0-0.2,0c0.1-0.1,0.2-0.2,0.3-0.3c2.7-2.7,5.5-5.5,8.2-8.2c0.8-0.8,1.7-1.7,2.5-2.5l0.1-0.1c0.5-0.3,0.6-0.7,0.6-1.3
				c0-2.3,0-4.5,0-6.8v-0.5h-11.6v-7.7h0.4c6.3,0,12.5,0,18.8,0c0.1,0,0.3,0,0.4,0L236.9,244.1L236.9,244.1z"/>
			<path fill="#FFFFFF" d="M235.8,211.2c-1.8,1.9-3.6,3.7-5.4,5.5c-2.1-1.9-4.5-3.2-7.2-3.9c-4.5-1.2-8.9-0.8-12.9,1.7
				c-3.1,1.9-5.1,4.7-6.2,8.2c-1.3,4.1-1.4,8.2,0.1,12.3c1.3,3.5,3.6,6.1,7.1,7.7c0.1,0,0.1,0.1,0.3,0.1c-0.3,0.3-0.7,0.7-1,1
				c-1.7,1.7-3.3,3.3-5,5c-0.2,0.2-0.3,0.2-0.5,0.1c-4.5-2.7-7.4-6.6-9.1-11.5c-0.8-2.5-1.2-5-1.3-7.6c-0.1-3.7,0.4-7.3,1.7-10.8
				c2-5.2,5.3-9.3,10.3-12c2.6-1.4,5.5-2.2,8.5-2.6c2.1-0.3,4.2-0.3,6.3-0.1c4.2,0.5,8.1,1.9,11.5,4.5
				C233.9,209.6,234.8,210.4,235.8,211.2"/>
		</g>
		<path fill="#FFFFFF" d="M267.8,218.4h7.6v32.1h-7.5l-0.4-4.7c-1.8,3.8-6.8,5.6-10.4,5.7c-9.5,0.1-16.5-5.8-16.5-17
			c0-11.1,7.4-16.9,16.7-16.8c4.3,0,8.4,2,10.2,5.2L267.8,218.4z M248.5,234.4c0,6.1,4.2,9.8,9.5,9.8c12.5,0,12.5-19.5,0-19.5
			C252.8,224.7,248.5,228.3,248.5,234.4z"/>
		<path fill="#FFFFFF" d="M302.2,250.5v-17.2c0-4.2-2.2-8.1-6.6-8.1c-4.3,0-6.8,3.8-6.8,8.1v17.2h-8v-32.2h7.4l0.6,3.9
			c1.7-3.3,5.4-4.4,8.5-4.4c3.8,0,7.7,1.6,9.5,6c2.9-4.5,6.6-5.9,10.8-5.9c9.1,0,13.6,5.6,13.6,15.2v17.3h-8v-17.3
			c0-4.2-1.7-7.8-6.1-7.8c-4.3,0-7,3.7-7,8v17.2C310.2,250.5,302.2,250.5,302.2,250.5z"/>
		<path fill="#FFFFFF" d="M343.5,237.2c0.5,4,4,6.8,9.6,6.8c2.9,0,6.8-1.1,8.6-3l5.1,5c-3.4,3.5-8.9,5.2-13.8,5.2
			c-11.1,0-17.6-6.8-17.6-17.1c0-9.8,6.6-16.8,17-16.8c10.8,0,17.4,6.6,16.2,19.9L343.5,237.2L343.5,237.2z M360.9,230.7
			c-0.5-4.2-3.8-6.3-8.3-6.3c-4.3,0-7.8,2.1-9,6.3H360.9z"/>
	</g>
</g>
<g>
	<path fill="#FFFFFF" d="M203.3,264.9h-9.2v-2.5h21.8v2.5h-9.3V291h-3.2v-26.1H203.3z"/>
	<path fill="#FFFFFF" d="M220.8,262.4h3.2v12.8h14.9v-12.8h3.2V291h-3.2v-13.3H224V291h-3.2V262.4z"/>
	<path fill="#FFFFFF" d="M249.8,262.4h16.1v2.5H253V275h9.4v2.5H253v11h14.3v2.5h-17.5L249.8,262.4L249.8,262.4z"/>
	<path fill="#FFFFFF" d="M284.6,262.1h1.5c2.1,0,4.6,0,7.1,0c6,0,9.9,2.6,9.9,9.2c0,6.2-4.1,9.7-10.7,9.7c-2,0-3.9-0.1-4.6-0.2v10
		h-3.2L284.6,262.1L284.6,262.1z M292.2,278.7c4.3-0.1,7.7-1.9,7.7-7.4c0-5-2.5-7.1-7.7-6.9c-1.5,0-3.2,0.1-4.5,0.3v13.8
		C289,278.7,291.1,278.7,292.2,278.7z"/>
	<path fill="#FFFFFF" d="M308.6,262.4h3.2v26.1h11.8v2.5h-15V262.4z"/>
	<path fill="#FFFFFF" d="M336.4,262.1h3.1l10.8,28.9h-3.4l-2.8-7.8h-12.5l-2.9,7.8h-3.4L336.4,262.1z M343.3,280.7l-4.6-13l-0.7-2.3
		l-0.7,2.3l-4.8,13H343.3z"/>
	<path fill="#FFFFFF" d="M361.3,264.9h-9.2v-2.5h21.8v2.5h-9.3V291h-3.2L361.3,264.9L361.3,264.9z"/>
	<path fill="#FFFFFF" d="M378.8,262.4h16v2.5H382v10.5h9.6v2.5H382V291h-3.2V262.4z"/>
	<path fill="#FFFFFF" d="M410.5,262.1c7.6-0.1,12.4,5.8,12.2,14.5c-0.2,9.5-5.6,14.5-12.8,14.6c-7.9,0.2-12.7-6.1-12.6-14.7
		C397.5,267,403.2,262.2,410.5,262.1z M419.5,276.5c0-6.6-3.1-12-9.1-12c-5.5,0.1-9.8,4.1-9.8,12.2c0,6.5,3.2,12.1,9.4,12.1
		C415.6,288.8,419.4,284.5,419.5,276.5z"/>
	<path fill="#FFFFFF" d="M428.6,262.4c0,0,1.7,0,1.9,0c1.8,0,4.3-0.2,6.8-0.2c5.8,0,9.8,2.1,9.8,7.9c0,4.3-2.3,7-5.8,8
		c2.8,1.7,4.8,7.7,6.7,11c0.4,0.7,0.8,1.4,1.1,1.9h-3.6c-0.3-0.4-0.5-0.8-1-1.9c-1.6-3.3-3.6-9.8-6.8-10.5c-1.5,0.1-3.3,0.1-5.8,0
		V291h-3.2v-28.6H428.6z M437.1,276.4c4,0,6.7-2,6.7-6.2c0-4.1-2.2-5.7-7.1-5.7c-1.7,0-3.8,0.1-5,0.3v11.5
		C432.7,276.4,436,276.4,437.1,276.4z"/>
	<path fill="#FFFFFF" d="M456.1,262.4h4.5l6.3,18.6l1.4,5.4l1.4-5.4l6-18.6h4.3l3.7,28.6h-3.2l-2-17.8l-0.8-8.4l-2.3,8.4l-6.1,18.1
		h-1.7l-6.4-18.1l-2.6-8.4l-0.7,8.4l-1.7,17.8h-3.1L456.1,262.4z"/>
</g>
</svg>
