<?xml version="1.0" encoding="utf-8"?>
<!-- Generator: Adobe Illustrator 17.1.0, SVG Export Plug-In . SVG Version: 6.00 Build 0)  -->
<!DOCTYPE svg PUBLIC "-//W3C//DTD SVG 1.1//EN" "http://www.w3.org/Graphics/SVG/1.1/DTD/svg11.dtd">
<svg version="1.1" id="Layer_1" xmlns="http://www.w3.org/2000/svg" xmlns:xlink="http://www.w3.org/1999/xlink" x="0px" y="0px"
	 viewBox="0 181 500 319" enable-background="new 0 181 500 319" xml:space="preserve">
<g>
	<path fill="#FFFFFF" d="M136.3,182.1c14.9,0,29.8,0,44.4,0c0,14.9,0,29.8,0,44.4c-14.9,0-29.8,0-44.4,0
		C136.3,211.9,136.3,197,136.3,182.1z"/>
	<path fill="#FFFFFF" d="M319.6,182.1c14.9,0,29.8,0,44.4,0c0,14.9,0,29.8,0,44.4c-14.9,0-29.8,0-44.4,0
		C319.6,211.9,319.6,197,319.6,182.1z"/>
	<path fill="#FFFFFF" d="M91.6,229.3c14.1,0,28.1,0,41.9,0c0,14.1,0,28.1,0,41.9c-14.1,0-28.1,0-41.9,0
		C91.6,257.1,91.6,243.3,91.6,229.3z"/>
	<path fill="#FFFFFF" d="M136.3,229.3c14.9,0,29.8,0,44.4,0c0,14.1,0,28.1,0,41.9c-14.9,0-29.8,0-44.4,0
		C136.3,257.1,136.3,243.3,136.3,229.3z"/>
	<path fill="#FFFFFF" d="M183.6,229.3c14.1,0,28.1,0,41.9,0c0,14.1,0,28.1,0,41.9c-14.1,0-28.1,0-41.9,0
		C183.6,257.1,183.6,243.3,183.6,229.3z"/>
	<path fill="#FFFFFF" d="M228,229.3c14.1,0,28.1,0,41.9,0c0,14.1,0,28.1,0,41.9c-14.1,0-28.1,0-41.9,0
		C228,257.1,228,243.3,228,229.3z"/>
	<path fill="#FFFFFF" d="M272.4,229.3c14.9,0,29.8,0,44.4,0c0,14.1,0,28.1,0,41.9c-14.9,0-29.8,0-44.4,0
		C272.4,257.1,272.4,243.3,272.4,229.3z"/>
	<path fill="#FFFFFF" d="M319.6,229.3c14.9,0,29.8,0,44.4,0c0,14.1,0,28.1,0,41.9c-14.9,0-29.8,0-44.4,0
		C319.6,257.1,319.6,243.3,319.6,229.3z"/>
	<path fill="#FFFFFF" d="M366.8,229.3c14.1,0,28.1,0,41.9,0c0,14.1,0,28.1,0,41.9c-14.1,0-28.1,0-41.9,0
		C366.8,257.1,366.8,243.3,366.8,229.3z"/>
	<path fill="#FFFFFF" d="M47.2,274c14.1,0,28.1,0,41.9,0c0,14.1,0,28.1,0,41.9c-14.1,0-28.1,0-41.9,0
		C47.2,301.8,47.2,287.8,47.2,274z"/>
	<path fill="#FFFFFF" d="M91.6,274c14.1,0,28.1,0,41.9,0c0,14.1,0,28.1,0,41.9c-14.1,0-28.1,0-41.9,0
		C91.6,301.8,91.6,287.8,91.6,274z"/>
	<path fill="#FFFFFF" d="M183.6,274c14.1,0,28.1,0,41.9,0c0,14.1,0,28.1,0,41.9c-14.1,0-28.1,0-41.9,0
		C183.6,301.8,183.6,287.8,183.6,274z"/>
	<path fill="#FFFFFF" d="M228,274c14.1,0,28.1,0,41.9,0c0,14.1,0,28.1,0,41.9c-14.1,0-28.1,0-41.9,0C228,301.8,228,287.8,228,274z"
		/>
	<path fill="#FFFFFF" d="M272.4,274c14.9,0,29.8,0,44.4,0c0,14.1,0,28.1,0,41.9c-14.9,0-29.8,0-44.4,0
		C272.4,301.8,272.4,287.8,272.4,274z"/>
	<path fill="#FFFFFF" d="M366.8,274c14.1,0,28.1,0,41.9,0c0,14.1,0,28.1,0,41.9c-14.1,0-28.1,0-41.9,0
		C366.8,301.8,366.8,287.8,366.8,274z"/>
	<path fill="#FFFFFF" d="M411.5,274c14.1,0,28.1,0,41.9,0c0,14.1,0,28.1,0,41.9c-14.1,0-28.1,0-41.9,0
		C411.5,301.8,411.5,287.8,411.5,274z"/>
	<path fill="#FFFFFF" d="M0,318.4c14.9,0,29.8,0,44.4,0c0,14.9,0,29.8,0,44.4c-14.9,0-29.8,0-44.4,0C0,348.2,0,333.3,0,318.4z"/>
	<path fill="#FFFFFF" d="M47.2,318.4c14.1,0,28.1,0,41.9,0c0,14.9,0,29.8,0,44.4c-14.1,0-28.1,0-41.9,0
		C47.2,348.2,47.2,333.3,47.2,318.4z"/>
	<path fill="#FFFFFF" d="M91.6,318.4c14.1,0,28.1,0,41.9,0c0,14.9,0,29.8,0,44.4c-14.1,0-28.1,0-41.9,0
		C91.6,348.2,91.6,333.3,91.6,318.4z"/>
	<path fill="#FFFFFF" d="M136.3,318.4c14.9,0,29.8,0,44.4,0c0,14.9,0,29.8,0,44.4c-14.9,0-29.8,0-44.4,0
		C136.3,348.2,136.3,333.3,136.3,318.4z"/>
	<path fill="#FFFFFF" d="M183.6,318.4c14.1,0,28.1,0,41.9,0c0,14.9,0,29.8,0,44.4c-14.1,0-28.1,0-41.9,0
		C183.6,348.2,183.6,333.3,183.6,318.4z"/>
	<path fill="#FFFFFF" d="M228,318.4c14.1,0,28.1,0,41.9,0c0,14.9,0,29.8,0,44.4c-14.1,0-28.1,0-41.9,0
		C228,348.2,228,333.3,228,318.4z"/>
	<path fill="#FFFFFF" d="M272.4,318.4c14.9,0,29.8,0,44.4,0c0,14.9,0,29.8,0,44.4c-14.9,0-29.8,0-44.4,0
		C272.4,348.2,272.4,333.3,272.4,318.4z"/>
	<path fill="#FFFFFF" d="M319.6,318.4c14.9,0,29.8,0,44.4,0c0,14.9,0,29.8,0,44.4c-14.9,0-29.8,0-44.4,0
		C319.6,348.2,319.6,333.3,319.6,318.4z"/>
	<path fill="#FFFFFF" d="M366.8,318.4c14.1,0,28.1,0,41.9,0c0,14.9,0,29.8,0,44.4c-14.1,0-28.1,0-41.9,0
		C366.8,348.2,366.8,333.3,366.8,318.4z"/>
	<path fill="#FFFFFF" d="M411.5,318.4c14.1,0,28.1,0,41.9,0c0,14.9,0,29.8,0,44.4c-14.1,0-28.1,0-41.9,0
		C411.5,348.2,411.5,333.3,411.5,318.4z"/>
	<path fill="#FFFFFF" d="M456,318.4c14.9,0,29.8,0,44.4,0c0,14.9,0,29.8,0,44.4c-14.9,0-29.8,0-44.4,0
		C456,348.2,456,333.3,456,318.4z"/>
	<path fill="#FFFFFF" d="M0,365.6c14.9,0,29.8,0,44.4,0c0,14.1,0,28.1,0,41.9c-14.9,0-29.8,0-44.4,0C0,393.4,0,379.4,0,365.6z"/>
	<path fill="#FFFFFF" d="M91.6,365.6c14.1,0,28.1,0,41.9,0c0,14.1,0,28.1,0,41.9c-14.1,0-28.1,0-41.9,0
		C91.6,393.4,91.6,379.4,91.6,365.6z"/>
	<path fill="#FFFFFF" d="M136.3,365.6c14.9,0,29.8,0,44.4,0c0,14.1,0,28.1,0,41.9c-14.9,0-29.8,0-44.4,0
		C136.3,393.4,136.3,379.4,136.3,365.6z"/>
	<path fill="#FFFFFF" d="M183.6,365.6c14.1,0,28.1,0,41.9,0c0,14.1,0,28.1,0,41.9c-14.1,0-28.1,0-41.9,0
		C183.6,393.4,183.6,379.4,183.6,365.6z"/>
	<path fill="#FFFFFF" d="M228,365.6c14.1,0,28.1,0,41.9,0c0,14.1,0,28.1,0,41.9c-14.1,0-28.1,0-41.9,0
		C228,393.4,228,379.4,228,365.6z"/>
	<path fill="#FFFFFF" d="M272.4,365.6c14.9,0,29.8,0,44.4,0c0,14.1,0,28.1,0,41.9c-14.9,0-29.8,0-44.4,0
		C272.4,393.4,272.4,379.4,272.4,365.6z"/>
	<path fill="#FFFFFF" d="M319.6,365.6c14.9,0,29.8,0,44.4,0c0,14.1,0,28.1,0,41.9c-14.9,0-29.8,0-44.4,0
		C319.6,393.4,319.6,379.4,319.6,365.6z"/>
	<path fill="#FFFFFF" d="M366.8,365.6c14.1,0,28.1,0,41.9,0c0,14.1,0,28.1,0,41.9c-14.1,0-28.1,0-41.9,0
		C366.8,393.4,366.8,379.4,366.8,365.6z"/>
	<path fill="#FFFFFF" d="M456,365.6c14.9,0,29.8,0,44.4,0c0,14.1,0,28.1,0,41.9c-14.9,0-29.8,0-44.4,0
		C456,393.4,456,379.4,456,365.6z"/>
	<path fill="#FFFFFF" d="M0,410c14.9,0,29.8,0,44.4,0c0,14.9,0,29.8,0,44.4c-14.9,0-29.8,0-44.4,0C0,439.8,0,424.9,0,410z"/>
	<path fill="#FFFFFF" d="M91.6,410c14.1,0,28.1,0,41.9,0c0,14.9,0,29.8,0,44.4c-14.1,0-28.1,0-41.9,0
		C91.6,439.8,91.6,424.9,91.6,410z"/>
	<path fill="#FFFFFF" d="M366.8,410c14.1,0,28.1,0,41.9,0c0,14.9,0,29.8,0,44.4c-14.1,0-28.1,0-41.9,0
		C366.8,439.8,366.8,424.9,366.8,410z"/>
	<path fill="#FFFFFF" d="M456,410c14.9,0,29.8,0,44.4,0c0,14.9,0,29.8,0,44.4c-14.9,0-29.8,0-44.4,0C456,439.8,456,424.9,456,410z"
		/>
	<path fill="#FFFFFF" d="M136.3,454.7c14.9,0,29.8,0,44.4,0c0,14.9,0,29.8,0,44.4c-14.9,0-29.8,0-44.4,0
		C136.3,484.2,136.3,469.6,136.3,454.7z"/>
	<path fill="#FFFFFF" d="M319.6,454.7c14.9,0,29.8,0,44.4,0c0,14.9,0,29.8,0,44.4c-14.9,0-29.8,0-44.4,0
		C319.6,484.2,319.6,469.6,319.6,454.7z"/>
</g>
</svg>
